<?xml version="1.0" encoding="UTF-8" standalone="no"?>
<!-- Created with Inkscape (http://www.inkscape.org/) -->

<svg
   xmlns:dc="http://purl.org/dc/elements/1.1/"
   xmlns:cc="http://creativecommons.org/ns#"
   xmlns:rdf="http://www.w3.org/1999/02/22-rdf-syntax-ns#"
   xmlns:svg="http://www.w3.org/2000/svg"
   xmlns="http://www.w3.org/2000/svg"
   xmlns:sodipodi="http://sodipodi.sourceforge.net/DTD/sodipodi-0.dtd"
   xmlns:inkscape="http://www.inkscape.org/namespaces/inkscape"
   width="128"
   height="128"
   id="svg3326"
   version="1.1"
   inkscape:version="0.48.5 r10040"
   sodipodi:docname="New document 5">
  <defs
     id="defs3328">
    <inkscape:path-effect
       effect="spiro"
       id="path-effect6092"
       is_visible="true" />
    <inkscape:path-effect
       effect="spiro"
       id="path-effect6080"
       is_visible="true" />
    <inkscape:path-effect
       effect="spiro"
       id="path-effect6076"
       is_visible="true" />
    <inkscape:path-effect
       effect="spiro"
       id="path-effect5544"
       is_visible="true" />
  </defs>
  <sodipodi:namedview
     id="base"
     pagecolor="#ffffff"
     bordercolor="#666666"
     borderopacity="1.0"
     inkscape:pageopacity="0.0"
     inkscape:pageshadow="2"
     inkscape:zoom="2.8284271"
     inkscape:cx="86.809137"
     inkscape:cy="79.080105"
     inkscape:current-layer="layer1"
     showgrid="false"
     inkscape:document-units="px"
     inkscape:grid-bbox="true"
     inkscape:window-width="1908"
     inkscape:window-height="961"
     inkscape:window-x="1080"
     inkscape:window-y="867"
     inkscape:window-maximized="1">
    <inkscape:grid
       empspacing="5"
       visible="true"
       enabled="true"
       snapvisiblegridlinesonly="true"
       type="xygrid"
       id="grid5444" />
  </sodipodi:namedview>
  <metadata
     id="metadata3331">
    <rdf:RDF>
      <cc:Work
         rdf:about="">
        <dc:format>image/svg+xml</dc:format>
        <dc:type
           rdf:resource="http://purl.org/dc/dcmitype/StillImage" />
        <dc:title></dc:title>
      </cc:Work>
    </rdf:RDF>
  </metadata>
  <g
     id="layer1"
     inkscape:label="Layer 1"
     inkscape:groupmode="layer"
     transform="translate(0,64)">
    <path
       style="fill:none;stroke:#000000;stroke-width:6.79999981;stroke-linecap:butt;stroke-linejoin:round;stroke-opacity:1;stroke-miterlimit:4;stroke-dasharray:none"
       d="M 120,104 120,80 64,96 8,80 l 0,24 56,16 56,-16"
       id="path5542"
       inkscape:path-effect="#path-effect5544"
       inkscape:original-d="M 120,104 120,80 64,96 8,80 l 0,24 56,16 56,-16"
       inkscape:connector-curvature="0"
       transform="translate(0,-64)"
       inkscape:export-xdpi="280.70175"
       inkscape:export-ydpi="280.70175" />
    <path
       inkscape:export-filename="/home/mh/path5542.png"
       inkscape:export-xdpi="280.70175"
       inkscape:export-ydpi="280.70175"
       style="fill:none;stroke:#000000;stroke-width:8;stroke-linecap:round;stroke-linejoin:round;stroke-opacity:1;stroke-miterlimit:4;stroke-dasharray:none"
       d="M 8,64 64,80 120,64"
       id="path6074"
       inkscape:path-effect="#path-effect6076"
       inkscape:original-d="M 8,64 64,80 120,64"
       inkscape:connector-curvature="0"
       transform="translate(0,-64)" />
    <path
       inkscape:export-filename="/home/mh/path5542.png"
       inkscape:export-xdpi="280.70175"
       inkscape:export-ydpi="280.70175"
       style="fill:none;stroke:#000000;stroke-width:8;stroke-linecap:butt;stroke-linejoin:round;stroke-opacity:1;stroke-miterlimit:4;stroke-dasharray:none"
       d="M 8,48 8,24 64,8 120,24 120,48 64,64 8,48"
       id="path6078"
       inkscape:path-effect="#path-effect6080"
       inkscape:original-d="M 8,48 8,24 64,8 120,24 120,48 64,64 8,48"
       inkscape:connector-curvature="0"
       transform="translate(0,-64)" />
    <path
       inkscape:export-filename="/home/mh/path5542.png"
       inkscape:export-xdpi="280.70175"
       inkscape:export-ydpi="280.70175"
       style="fill:none;stroke:#000000;stroke-width:8;stroke-linecap:butt;stroke-linejoin:round;stroke-opacity:1;stroke-miterlimit:4;stroke-dasharray:none"
       d="M 8,24 64,40 120,24"
       id="path6090"
       inkscape:path-effect="#path-effect6092"
       inkscape:original-d="M 8,24 64,40 120,24"
       inkscape:connector-curvature="0"
       transform="translate(0,-64)" />
    <path
       style="fill:#55ddff;fill-opacity:1;stroke:none"
       d="M 116.20093,83.680872 C 99.395661,88.418003 82.630746,93.343316 65.806399,97.981653 64.910208,98.169077 63.972265,98.64 63.060305,98.200403 50.387645,94.780552 37.774439,91.046706 25.129829,87.476145 20.633126,86.22123 16.151207,84.856185 11.642363,83.679551 c -1.051132,-0.15321 -1.265806,1.064874 -1.176951,1.852832 -0.06798,5.311297 -0.08668,10.637004 -0.01818,15.940257 0.254015,1.15361 1.737577,0.99065 2.613995,1.39136 16.292037,4.64526 32.568623,9.35462 48.865982,13.97373 1.096026,0.26686 2.25595,0.75747 3.354181,0.19717 17.104371,-4.86589 34.245929,-9.73359 51.31407,-14.647 1.16466,-0.39593 0.83235,-1.87035 0.91969,-2.816391 0.0151,-5.020533 0.0813,-10.058357 -0.0608,-15.068713 -0.0798,-0.566118 -0.70508,-0.962543 -1.25343,-0.821924 z"
       id="path6628"
       inkscape:connector-curvature="0"
       transform="translate(0,-64)"
       inkscape:export-filename="/home/mh/path5542.png"
       inkscape:export-xdpi="280.70175"
       inkscape:export-ydpi="280.70175" />
    <path
       style="fill:#00ffcc;fill-opacity:1;stroke:none"
       d="m 115.23465,28.684384 c -17.08353,4.74503 -34.11439,9.80707 -51.218752,14.421875 -17.16277,-4.620507 -34.244665,-9.720626 -51.390625,-14.453125 -1.835804,-0.05657 -1.284873,2.24339 -1.440477,3.421759 -0.03255,4.332699 -0.155294,8.709431 0.03785,13.014772 0.778946,1.36878 2.890437,1.102533 4.221439,1.762734 16.090453,4.532849 32.090436,9.42508 48.274936,13.59761 2.333615,-0.02056 4.565705,-1.177125 6.854767,-1.64384 15.209738,-4.28668 30.41906,-8.578077 45.59054,-12.996785 1.39199,-0.967507 0.43827,-3.014833 0.71875,-4.460937 -0.12048,-4.014625 0.25153,-8.090945 -0.29687,-12.070313 -0.30281,-0.526793 -0.73169,-0.72013 -1.35156,-0.59375 z"
       id="path6636"
       inkscape:connector-curvature="0"
       transform="translate(0,-64)"
       inkscape:export-filename="/home/mh/path5542.png"
       inkscape:export-xdpi="280.70175"
       inkscape:export-ydpi="280.70175" />
    <path
       style="fill:#00d4aa;fill-opacity:1;stroke:none"
       d="m 11.119446,83.015857 c -1.8075131,0.471336 -1.2005491,2.858019 -1.3936794,4.24207 -0.00551,4.986147 -0.2904378,10.012223 0.1280545,14.976683 1.0295169,1.31885 3.0457659,1.13718 4.4826379,1.81728 16.387169,4.77201 32.785362,9.54813 49.251737,14.01865 3.709665,-0.57782 7.314647,-1.94532 10.978765,-2.84222 13.95319,-3.97223 27.989469,-7.7356 41.818109,-12.08746 1.72926,-0.25708 1.99355,-2.13538 1.90625,-3.562503 -0.059,-5.127994 0.18834,-10.294926 -0.29687,-15.398437 -0.37584,-1.797019 -2.53457,-1.024103 -3.73455,-0.727707 C 97.558023,87.905581 80.981673,93.01826 64.260071,97.36742 60.574513,96.810698 57.004518,95.510519 53.375231,94.605602 39.759289,90.870975 26.250333,86.714349 12.578346,83.204621 c -0.479656,-0.09755 -0.965971,-0.224324 -1.4589,-0.188764 z"
       id="path6660"
       inkscape:connector-curvature="0"
       transform="translate(0,-64)"
       inkscape:export-filename="/home/mh/path5542.png"
       inkscape:export-xdpi="280.70175"
       inkscape:export-ydpi="280.70175" />
    <path
       style="fill:#55ffdd;fill-opacity:1;stroke:none"
       d="m 7.6945084,75.777469 c -2.1000209,0.267747 -3.8755204,2.047682 -3.7613897,4.232911 -0.3600576,8.285175 -0.0778,16.59125 -0.1682978,24.88428 0.5930636,1.7883 2.1819188,3.12986 4.0599743,3.38365 18.5546448,5.41874 37.1268358,10.80889 55.7603378,15.93666 3.511718,-0.52409 6.918875,-1.83991 10.38604,-2.67966 15.943535,-4.53464 31.934357,-8.94288 47.785837,-13.77347 1.78467,-0.79934 2.64997,-2.71505 2.44574,-4.60142 0.0477,-7.908037 0.21589,-15.856171 -0.11762,-23.742326 -0.26036,-2.519364 -3.27162,-4.471748 -5.63281,-3.257812 C 100.27179,81.120746 82.172816,86.49996 64.014821,91.488407 45.319793,86.386099 26.719315,80.743262 7.9757584,75.777469 c -0.093353,-0.01044 -0.18793,-0.01176 -0.28125,0 z m 3.6796876,8.242188 c 6.661837,1.291861 13.162597,3.41046 19.732772,5.169527 10.689388,2.909977 21.267413,6.273271 32.04215,8.836011 2.265313,0.513053 4.454075,-0.91449 6.678303,-1.270358 14.786965,-3.933483 29.422457,-8.481281 44.234279,-12.250805 0.93125,-0.110017 2.12406,-0.659105 2.92968,-0.320313 0.5788,5.215716 0.38756,10.575459 0.28907,15.843751 -0.0542,0.9513 -0.0163,2.36692 -1.35938,2.33594 -16.544037,4.9937 -33.252562,9.81164 -49.914062,14.3125 -2.222592,0.98207 -4.41113,-0.32255 -6.59886,-0.74229 -16.071422,-4.43103 -32.24269,-8.88896 -48.166765,-13.75771 -0.872283,-0.23272 -0.38215,-1.58645 -0.586185,-2.265498 0.0059,-5.125534 -0.228889,-10.322021 0.19556,-15.40638 0.0404,-0.343035 0.102486,-0.599153 0.523438,-0.484375 z"
       id="path6682"
       inkscape:connector-curvature="0"
       transform="translate(0,-64)"
       inkscape:export-filename="/home/mh/path5542.png"
       inkscape:export-xdpi="280.70175"
       inkscape:export-ydpi="280.70175" />
    <path
       style="fill:#00d4aa;fill-opacity:1;stroke:none"
       d="m 43.366383,17.175907 c -6.7273,1.979354 -13.538725,3.786475 -20.164062,6.039062 -1.26367,0.78577 -0.0074,2.194925 1.120928,2.154581 13.018203,3.671339 25.965704,7.650423 39.066572,10.978232 2.28334,0.52135 4.46931,-0.982171 6.696955,-1.346724 11.572587,-3.324425 23.176137,-6.558648 34.717104,-9.981401 1.39548,-0.658535 0.30582,-2.217099 -0.85937,-2.203125 -13.163842,-4.006084 -26.436777,-7.653739 -39.656252,-11.476563 -4.2304,0.844493 -8.368562,2.345985 -12.563662,3.441925 -2.78607,0.798004 -5.572141,1.596009 -8.358213,2.394013 z"
       id="path6688"
       inkscape:connector-curvature="0"
       transform="translate(0,-64)"
       inkscape:export-filename="/home/mh/path5542.png"
       inkscape:export-xdpi="280.70175"
       inkscape:export-ydpi="280.70175" />
    <path
       style="fill:#00d4aa;fill-opacity:1;stroke:none"
       d="m 12.061696,27.886844 c -2.022144,0.400336 -1.61186,2.933519 -1.684687,4.460888 0.04911,4.365054 -0.320902,8.782436 0.215937,13.117237 0.657919,1.49525 2.736091,1.293016 4.040766,1.942688 15.849212,4.710744 31.752731,9.37152 47.758004,13.525247 2.74138,0.923358 5.437612,-0.73955 8.099667,-1.225747 15.377158,-4.40177 30.845967,-8.576741 46.101567,-13.335938 1.6137,-0.817906 0.9029,-3.077693 1.13891,-4.531212 -0.11765,-4.212694 0.29961,-8.503709 -0.42016,-12.6641 -0.34663,-1.632612 -2.22791,-1.327562 -3.39844,-0.875 -16.686859,4.446754 -33.259279,9.34352 -49.914064,13.921875 -17.06221,-4.643533 -34.013364,-9.710565 -51.09375,-14.273438 -0.288132,-0.046 -0.553692,-0.09706 -0.84375,-0.0625 z"
       id="path6690"
       inkscape:connector-curvature="0"
       transform="translate(0,-64)"
       inkscape:export-filename="/home/mh/path5542.png"
       inkscape:export-xdpi="280.70175"
       inkscape:export-ydpi="280.70175" />
    <path
       style="fill:#008066;fill-opacity:1;stroke:none"
       d="M 63.921071,3.2774695 C 51.853183,6.3285269 39.905421,9.9061624 27.912196,13.2648 c -7.398486,2.192682 -14.90603,4.105757 -22.2020626,6.590794 -1.7131617,1.03993 -2.884097,2.945235 -2.4453125,5 0.1032922,8.10436 -0.2192828,16.226563 0.1953125,24.320313 0.2651734,2.330905 2.7236325,3.366152 4.75,3.765625 18.3134516,5.462522 36.6769276,10.806042 55.1406246,15.734375 2.30503,0.05304 4.52408,-1.050163 6.772418,-1.487745 17.346707,-4.82578 34.723414,-9.614425 51.908504,-14.963045 1.79497,-0.763225 2.89355,-2.65532 2.66283,-4.588273 0.0754,-8.12016 0.19163,-16.251232 -0.0703,-24.367187 -0.0963,-2.42668 -2.50027,-3.884043 -4.67386,-4.23866 C 101.47228,13.600496 82.943726,8.2458379 64.342946,3.300907 64.204366,3.2745114 64.062133,3.2569023 63.921071,3.2774695 z m 9.445312,11.5546875 c 10.309788,3.02091 20.71782,5.847838 30.937497,9.085937 0.62123,0.34986 -0.77826,0.586664 -0.98269,0.654189 -12.687724,3.566959 -25.315682,7.373876 -38.025119,10.845811 -3.5605,0.04592 -6.952333,-1.468557 -10.38136,-2.231487 -10.3361,-2.936988 -20.723983,-5.761429 -30.99364,-8.893513 -0.746044,-0.330061 0.934525,-0.503675 1.14197,-0.725012 11.274707,-3.620627 22.756605,-6.722284 34.150565,-10.016273 2.220175,-0.398735 4.486237,-1.866746 6.710715,-0.841404 2.480687,0.70725 4.961375,1.414501 7.442062,2.121752 z m 42.476567,13.953125 c 0.95915,0.392672 0.58878,1.869022 0.83593,2.679687 0.26286,4.5721 0.29957,9.241865 -0.0781,13.773438 -7.54218,2.776122 -15.37079,4.721875 -23.078422,7.036882 -9.123002,2.52643 -18.17994,5.32902 -27.351267,7.65843 -4.089423,0.815103 -8.05691,-1.236957 -12.008603,-2.078477 -14.10634,-3.971475 -28.304676,-7.886378 -42.257022,-12.234023 -0.9288,-0.85776 -0.437337,-2.560185 -0.628571,-3.726537 0.0927,-4.182013 -0.258581,-8.439123 0.230133,-12.57815 0.621334,-1.044108 2.020859,0.02514 2.930134,0.02899 16.548246,4.303545 33.008061,9.26 49.538616,13.697572 10.89355,-2.872727 21.735583,-6.103047 32.62786,-9.047882 6.413572,-1.76477 12.805302,-3.568803 19.239332,-5.20993 z"
       id="path6692"
       inkscape:connector-curvature="0"
       transform="translate(0,-64)"
       inkscape:export-filename="/home/mh/path5542.png"
       inkscape:export-xdpi="280.70175"
       inkscape:export-ydpi="280.70175" />
    <path
       style="fill:#005544;fill-opacity:1;stroke:none"
       d="m 120.05388,59.332157 c -6.31524,1.199201 -12.42093,3.296391 -18.64421,4.938089 C 88.939843,67.812817 76.480046,71.390613 64.014821,74.949344 46.603861,70.035325 29.263546,64.839808 11.794584,60.151597 9.5518529,59.720612 6.6635424,58.455885 4.8116959,60.472782 c -2.6370165,2.048537 -1.804644,6.584689 1.2265625,7.757812 16.4719046,5.148027 33.1199676,9.754321 49.7368396,14.423977 2.77694,0.643295 5.499755,1.754422 8.333473,2.060398 12.694032,-3.178184 25.245815,-6.934804 37.840539,-10.497499 6.84403,-2.051611 13.79036,-3.844239 20.52665,-6.197813 3.31706,-1.71548 2.8605,-7.290172 -0.70313,-8.398438 -0.54391,-0.199831 -1.13586,-0.324354 -1.71875,-0.289062 z"
       id="path6694"
       inkscape:connector-curvature="0"
       transform="translate(0,-64)"
       inkscape:export-filename="/home/mh/path5542.png"
       inkscape:export-xdpi="280.70175"
       inkscape:export-ydpi="280.70175" />
    <path
       style="fill:#005544;fill-opacity:1;stroke:none"
       d="m 7.1475493,74.911351 c -2.1916382,0.76484 -4.1530478,2.653509 -4.0410464,5.124808 -0.2146124,8.383808 -0.233068,16.799876 -0.1081046,25.170001 0.7578204,1.82344 2.2547474,3.42063 4.2930917,3.71523 17.572202,5.30816 35.250929,10.34851 52.942219,15.21515 2.06184,0.57 4.231235,1.20104 6.313308,0.33458 16.999565,-4.70252 33.998573,-9.53326 50.920843,-14.53633 2.56027,-0.95653 6.04257,-1.20381 7.19531,-4.13281 0.70405,-3.63824 0.23479,-7.418483 0.39063,-11.109379 -0.0877,-5.327657 0.17684,-10.701312 -0.13281,-16 -0.92623,-2.23463 -3.32495,-4.410255 -5.89082,-3.43874 C 100.62093,80.117112 82.337507,85.475923 63.991299,90.583226 45.261704,85.411908 26.626859,79.90081 7.8662993,74.841038 c -0.2395833,0.02344 -0.4791668,0.04687 -0.71875,0.07031 z m 4.7812497,10.109375 c 10.789562,2.464132 21.369093,5.826915 32.061133,8.731186 6.676855,1.819159 13.3275,3.806883 20.063867,5.346939 9.571258,-2.283468 19.014543,-5.206632 28.51642,-7.81158 7.747591,-2.101822 15.435231,-4.502177 23.264831,-6.15717 0.77889,0.17727 0.32218,1.867494 0.52349,2.671751 0.0515,4.501465 0.24109,9.099483 -0.21099,13.546998 -0.95198,0.62257 -2.45667,0.64933 -3.55242,1.12383 -15.800626,4.56651 -31.557008,9.36502 -47.494456,13.37617 -2.681805,0.61462 -5.24702,-0.93618 -7.835867,-1.41258 -15.214135,-4.24177 -30.442603,-8.43965 -45.554758,-13.03273 -0.492884,-5.3672 -0.153839,-10.844744 -0.0078,-16.226564 l 0.02344,-0.195313 0.203125,0.03906 z"
       id="path6696"
       inkscape:connector-curvature="0"
       transform="translate(0,-64)"
       inkscape:export-filename="/home/mh/path5542.png"
       inkscape:export-xdpi="280.70175"
       inkscape:export-ydpi="280.70175" />
    <path
       style="fill:#00d4aa;fill-opacity:1;stroke:none"
       d="m 12.069424,84.341038 c -1.860728,0.310595 -1.16379,2.703965 -1.359375,4.007813 0.02262,4.312519 -0.178064,8.683476 0.242188,12.960939 0.872562,1.46141 2.948127,1.4084 4.371885,2.05748 15.52484,4.61347 31.16001,8.99697 46.776552,13.29408 3.842958,0.37496 7.52735,-1.28061 11.232673,-2.08361 14.308512,-3.97776 28.653153,-7.90708 42.806393,-12.40076 1.52903,-0.82903 0.84284,-2.971647 1.07031,-4.390629 -0.0159,-4.135484 0.1283,-8.293682 -0.23438,-12.414063 -0.64139,-1.686116 -2.75987,-0.59987 -4.01562,-0.476562 -16.394226,4.105705 -32.539008,9.171948 -48.914063,13.3125 -17.150455,-4.188462 -33.96529,-9.680154 -51.121258,-13.800908 -0.282568,-0.05175 -0.567123,-0.09851 -0.855305,-0.06628 z"
       id="path6698"
       inkscape:connector-curvature="0"
       transform="translate(0,-64)"
       inkscape:export-xdpi="280.70175"
       inkscape:export-ydpi="280.70175"
       inkscape:export-filename="/home/mh/path5542.png" />
  </g>
</svg>
