<?xml version="1.0" encoding="UTF-8" standalone="no"?>
<!-- Created with Inkscape (http://www.inkscape.org/) -->

<svg
   xmlns:dc="http://purl.org/dc/elements/1.1/"
   xmlns:cc="http://creativecommons.org/ns#"
   xmlns:rdf="http://www.w3.org/1999/02/22-rdf-syntax-ns#"
   xmlns:svg="http://www.w3.org/2000/svg"
   xmlns="http://www.w3.org/2000/svg"
   xmlns:sodipodi="http://sodipodi.sourceforge.net/DTD/sodipodi-0.dtd"
   xmlns:inkscape="http://www.inkscape.org/namespaces/inkscape"
   width="512"
   height="128"
   id="svg6734"
   version="1.1"
   inkscape:version="0.48.5 r10040"
   inkscape:export-filename="/home/mh/Development/jgloom-logo.png"
   inkscape:export-xdpi="280.70175"
   inkscape:export-ydpi="280.70175"
   sodipodi:docname="New document 20">
  <defs
     id="defs6736">
    <inkscape:path-effect
       effect="spiro"
       id="path-effect5544"
       is_visible="true" />
    <inkscape:path-effect
       effect="spiro"
       id="path-effect6076"
       is_visible="true" />
    <inkscape:path-effect
       effect="spiro"
       id="path-effect6080"
       is_visible="true" />
    <inkscape:path-effect
       effect="spiro"
       id="path-effect6092"
       is_visible="true" />
  </defs>
  <sodipodi:namedview
     id="base"
     pagecolor="#ffffff"
     bordercolor="#666666"
     borderopacity="1.0"
     inkscape:pageopacity="0.0"
     inkscape:pageshadow="2"
     inkscape:zoom="1.979899"
     inkscape:cx="251.56977"
     inkscape:cy="77.309403"
     inkscape:document-units="px"
     inkscape:current-layer="layer1"
     showgrid="false"
     inkscape:window-width="1908"
     inkscape:window-height="961"
     inkscape:window-x="1080"
     inkscape:window-y="867"
     inkscape:window-maximized="1">
    <inkscape:grid
       type="xygrid"
       id="grid6829"
       empspacing="5"
       visible="true"
       enabled="true"
       snapvisiblegridlinesonly="true" />
  </sodipodi:namedview>
  <metadata
     id="metadata6739">
    <rdf:RDF>
      <cc:Work
         rdf:about="">
        <dc:format>image/svg+xml</dc:format>
        <dc:type
           rdf:resource="http://purl.org/dc/dcmitype/StillImage" />
        <dc:title></dc:title>
      </cc:Work>
    </rdf:RDF>
  </metadata>
  <g
     inkscape:label="Layer 1"
     inkscape:groupmode="layer"
     id="layer1"
     transform="translate(0,-924.36218)">
    <path
       style="fill:none;stroke:#000000;stroke-width:6.79999971;stroke-linecap:butt;stroke-linejoin:round;stroke-miterlimit:4;stroke-opacity:1;stroke-dasharray:none"
       d="m 120.50155,1026.922 0,-24 -56,16 -56.000003,-16 0,24 56.000003,16 56,-16"
       id="path5542"
       inkscape:path-effect="#path-effect5544"
       inkscape:original-d="m 120.50155,1026.922 0,-24 -56,16 -56.000003,-16 0,24 56.000003,16 56,-16"
       inkscape:connector-curvature="0"
       inkscape:export-xdpi="280.70175"
       inkscape:export-ydpi="280.70175" />
    <path
       inkscape:export-filename="/home/mh/path5542.png"
       inkscape:export-xdpi="280.70175"
       inkscape:export-ydpi="280.70175"
       style="fill:none;stroke:#000000;stroke-width:8;stroke-linecap:round;stroke-linejoin:round;stroke-miterlimit:4;stroke-opacity:1;stroke-dasharray:none"
       d="m 8.501547,986.92206 56.000003,15.99994 56,-15.99994"
       id="path6074"
       inkscape:path-effect="#path-effect6076"
       inkscape:original-d="m 8.501547,986.92206 56.000003,15.99994 56,-15.99994"
       inkscape:connector-curvature="0" />
    <path
       inkscape:export-filename="/home/mh/path5542.png"
       inkscape:export-xdpi="280.70175"
       inkscape:export-ydpi="280.70175"
       style="fill:none;stroke:#000000;stroke-width:8;stroke-linecap:butt;stroke-linejoin:round;stroke-miterlimit:4;stroke-opacity:1;stroke-dasharray:none"
       d="m 8.501547,970.92206 0,-24 56.000003,-16 56,16 0,24 -56,16 -56.000003,-16"
       id="path6078"
       inkscape:path-effect="#path-effect6080"
       inkscape:original-d="m 8.501547,970.92206 0,-24 56.000003,-16 56,16 0,24 -56,16 -56.000003,-16"
       inkscape:connector-curvature="0" />
    <path
       inkscape:export-filename="/home/mh/path5542.png"
       inkscape:export-xdpi="280.70175"
       inkscape:export-ydpi="280.70175"
       style="fill:none;stroke:#000000;stroke-width:8;stroke-linecap:butt;stroke-linejoin:round;stroke-miterlimit:4;stroke-opacity:1;stroke-dasharray:none"
       d="m 8.501547,946.92206 56.000003,16 56,-16"
       id="path6090"
       inkscape:path-effect="#path-effect6092"
       inkscape:original-d="m 8.501547,946.92206 56.000003,16 56,-16"
       inkscape:connector-curvature="0" />
    <path
       style="fill:#55ddff;fill-opacity:1;stroke:none"
       d="m 116.70248,1006.6029 c -16.80527,4.7371 -33.57019,9.6624 -50.39453,14.3008 -0.89619,0.1874 -1.83414,0.6583 -2.7461,0.2187 -12.67266,-3.4198 -25.28586,-7.1537 -37.930474,-10.7242 -4.496703,-1.255 -8.978622,-2.62 -13.487466,-3.7966 -1.051132,-0.1532 -1.265806,1.0648 -1.176951,1.8528 -0.06798,5.3113 -0.08668,10.637 -0.01818,15.9402 0.254015,1.1537 1.737577,0.9907 2.613995,1.3914 16.292037,4.6453 32.568626,9.3546 48.865986,13.9737 1.09602,0.2669 2.25595,0.7575 3.35418,0.1972 17.10437,-4.8659 34.24593,-9.7336 51.31407,-14.647 1.16466,-0.3959 0.83235,-1.8703 0.91969,-2.8164 0.0151,-5.0205 0.0813,-10.0583 -0.0608,-15.0687 -0.0798,-0.5661 -0.70508,-0.9625 -1.25343,-0.8219 z"
       id="path6628"
       inkscape:connector-curvature="0"
       inkscape:export-filename="/home/mh/path5542.png"
       inkscape:export-xdpi="280.70175"
       inkscape:export-ydpi="280.70175" />
    <path
       style="fill:#00ffcc;fill-opacity:1;stroke:none"
       d="m 115.7362,951.60644 c -17.08353,4.74503 -34.11439,9.80707 -51.21875,14.42188 -17.16277,-4.62051 -34.24467,-9.72063 -51.39063,-14.45313 -1.835804,-0.0566 -1.284873,2.24339 -1.440477,3.42176 -0.03255,4.3327 -0.155294,8.70943 0.03785,13.01477 0.778946,1.36878 2.890437,1.10254 4.221439,1.76274 16.090458,4.53285 32.090438,9.42508 48.274938,13.59761 2.33361,-0.0206 4.5657,-1.17713 6.85477,-1.64384 15.20973,-4.28668 30.41906,-8.57808 45.59054,-12.99679 1.39199,-0.9675 0.43827,-3.01483 0.71875,-4.46093 -0.12048,-4.01463 0.25153,-8.09095 -0.29687,-12.07032 -0.30281,-0.52679 -0.73169,-0.72013 -1.35156,-0.59375 z"
       id="path6636"
       inkscape:connector-curvature="0"
       inkscape:export-filename="/home/mh/path5542.png"
       inkscape:export-xdpi="280.70175"
       inkscape:export-ydpi="280.70175" />
    <path
       style="fill:#00d4aa;fill-opacity:1;stroke:none"
       d="m 11.620993,1005.9379 c -1.807513,0.4713 -1.200549,2.858 -1.393679,4.242 -0.0055,4.9862 -0.290438,10.0123 0.128054,14.9767 1.029517,1.3189 3.045766,1.1372 4.482638,1.8173 16.387169,4.772 32.785364,9.5481 49.251734,14.0187 3.70967,-0.5779 7.31465,-1.9454 10.97877,-2.8423 13.95319,-3.9722 27.98947,-7.7356 41.81811,-12.0874 1.72926,-0.2571 1.99355,-2.1354 1.90625,-3.5625 -0.059,-5.128 0.18834,-10.295 -0.29687,-15.3985 -0.37584,-1.797 -2.53457,-1.0241 -3.73455,-0.7277 -16.70188,4.4534 -33.27823,9.5661 -49.99983,13.9152 -3.68556,-0.5567 -7.25555,-1.8569 -10.88484,-2.7618 -13.61594,-3.7346 -27.1249,-7.8912 -40.796887,-11.401 -0.479656,-0.098 -0.965971,-0.2243 -1.4589,-0.1887 z"
       id="path6660"
       inkscape:connector-curvature="0"
       inkscape:export-filename="/home/mh/path5542.png"
       inkscape:export-xdpi="280.70175"
       inkscape:export-ydpi="280.70175" />
    <path
       style="fill:#55ffdd;fill-opacity:1;stroke:none"
       d="m 8.196055,998.69953 c -2.10002,0.26775 -3.87552,2.04767 -3.761389,4.23287 -0.360058,8.2852 -0.0778,16.5912 -0.168298,24.8843 0.593064,1.7883 2.181919,3.1298 4.059974,3.3836 18.554645,5.4188 37.126838,10.8089 55.760338,15.9367 3.51172,-0.5241 6.91888,-1.8399 10.38604,-2.6797 15.94354,-4.5346 31.93436,-8.9429 47.78584,-13.7734 1.78467,-0.7994 2.64997,-2.7151 2.44574,-4.6015 0.0477,-7.908 0.21589,-15.8561 -0.11762,-23.7423 -0.26036,-2.51931 -3.27162,-4.47169 -5.63281,-3.25776 -18.18053,4.96046 -36.27951,10.33966 -54.4375,15.32806 -18.69503,-5.1023 -37.295508,-10.7451 -56.039065,-15.71087 -0.09335,-0.0104 -0.18793,-0.0118 -0.28125,0 z m 3.679688,8.24217 c 6.661837,1.2918 13.162597,3.4104 19.732772,5.1695 10.689385,2.91 21.267415,6.2733 32.042155,8.836 2.26531,0.5131 4.45407,-0.9145 6.6783,-1.2704 14.78696,-3.9334 29.42246,-8.4812 44.23428,-12.2508 0.93125,-0.11 2.12406,-0.6591 2.92968,-0.3203 0.5788,5.2157 0.38756,10.5755 0.28907,15.8438 -0.0542,0.9513 -0.0163,2.3669 -1.35938,2.3359 -16.54404,4.9937 -33.25256,9.8117 -49.91406,14.3125 -2.2226,0.9821 -4.41113,-0.3225 -6.59886,-0.7423 -16.07143,-4.431 -32.242695,-8.8889 -48.16677,-13.7577 -0.872283,-0.2327 -0.38215,-1.5864 -0.586185,-2.2655 0.0059,-5.1255 -0.228889,-10.322 0.19556,-15.4064 0.0404,-0.343 0.102486,-0.5991 0.523438,-0.4843 z"
       id="path6682"
       inkscape:connector-curvature="0"
       inkscape:export-filename="/home/mh/path5542.png"
       inkscape:export-xdpi="280.70175"
       inkscape:export-ydpi="280.70175" />
    <path
       style="fill:#00d4aa;fill-opacity:1;stroke:none"
       d="m 43.86793,940.09797 c -6.7273,1.97935 -13.538725,3.78647 -20.164062,6.03906 -1.26367,0.78577 -0.0074,2.19492 1.120928,2.15458 13.018204,3.67134 25.965704,7.65042 39.066574,10.97823 2.28334,0.52135 4.46931,-0.98217 6.69695,-1.34672 11.57259,-3.32443 23.17614,-6.55865 34.71711,-9.9814 1.39548,-0.65854 0.30582,-2.2171 -0.85937,-2.20313 -13.16384,-4.00608 -26.43678,-7.65374 -39.65625,-11.47656 -4.2304,0.84449 -8.36857,2.34598 -12.56367,3.44192 -2.78607,0.79801 -5.57214,1.59601 -8.35821,2.39402 z"
       id="path6688"
       inkscape:connector-curvature="0"
       inkscape:export-filename="/home/mh/path5542.png"
       inkscape:export-xdpi="280.70175"
       inkscape:export-ydpi="280.70175" />
    <path
       style="fill:#00d4aa;fill-opacity:1;stroke:none"
       d="m 12.563243,950.8089 c -2.022144,0.40034 -1.61186,2.93352 -1.684687,4.46089 0.04911,4.36506 -0.320902,8.78244 0.215937,13.11724 0.657919,1.49525 2.736091,1.29301 4.040766,1.94269 15.849212,4.71074 31.752731,9.37152 47.758001,13.52524 2.74138,0.92336 5.43762,-0.73955 8.09967,-1.22574 15.37716,-4.40177 30.84597,-8.57674 46.10157,-13.33594 1.6137,-0.81791 0.9029,-3.07769 1.13891,-4.53121 -0.11765,-4.2127 0.29961,-8.50371 -0.42016,-12.6641 -0.34663,-1.63262 -2.22791,-1.32757 -3.39844,-0.875 -16.68686,4.44675 -33.25928,9.34352 -49.91407,13.92187 -17.06221,-4.64353 -34.013361,-9.71056 -51.093747,-14.27344 -0.288132,-0.046 -0.553692,-0.0971 -0.84375,-0.0625 z"
       id="path6690"
       inkscape:connector-curvature="0"
       inkscape:export-filename="/home/mh/path5542.png"
       inkscape:export-xdpi="280.70175"
       inkscape:export-ydpi="280.70175" />
    <path
       style="fill:#008066;fill-opacity:1;stroke:none"
       d="m 64.42262,926.19953 c -12.06789,3.05106 -24.01565,6.62869 -36.008877,9.98733 -7.398486,2.19268 -14.90603,4.10576 -22.202063,6.59079 -1.713161,1.03993 -2.884096,2.94524 -2.445312,5 0.103292,8.10436 -0.219283,16.22657 0.195313,24.32032 0.265173,2.3309 2.723632,3.36615 4.749999,3.76562 18.313452,5.46252 36.67693,10.80604 55.14063,15.73438 2.30503,0.053 4.52408,-1.05017 6.77241,-1.48775 17.34671,-4.82578 34.72342,-9.61442 51.90851,-14.96304 1.79497,-0.76323 2.89355,-2.65532 2.66283,-4.58828 0.0754,-8.12016 0.19163,-16.25123 -0.0703,-24.36718 -0.0963,-2.42668 -2.50027,-3.88405 -4.67386,-4.23866 -18.47807,-5.4305 -37.00663,-10.78516 -55.60741,-15.73009 -0.13858,-0.0264 -0.28081,-0.044 -0.42187,-0.0234 z m 9.44531,11.55469 c 10.30979,3.02091 20.71782,5.84783 30.9375,9.08593 0.62123,0.34986 -0.77826,0.58667 -0.98269,0.65419 -12.68773,3.56696 -25.31568,7.37388 -38.02512,10.84581 -3.5605,0.0459 -6.95233,-1.46855 -10.38136,-2.23148 -10.3361,-2.93699 -20.72398,-5.76143 -30.993642,-8.89352 -0.746044,-0.33006 0.934525,-0.50367 1.14197,-0.72501 11.274712,-3.62063 22.756602,-6.72228 34.150562,-10.01627 2.22018,-0.39874 4.48624,-1.86675 6.71072,-0.84141 2.48069,0.70725 4.96137,1.41451 7.44206,2.12176 z m 42.47657,13.95312 c 0.95915,0.39267 0.58878,1.86902 0.83593,2.67969 0.26286,4.5721 0.29957,9.24186 -0.0781,13.77344 -7.54218,2.77612 -15.37079,4.72187 -23.07842,7.03688 -9.12301,2.52643 -18.17994,5.32902 -27.35127,7.65843 -4.08942,0.8151 -8.05691,-1.23696 -12.0086,-2.07848 -14.10634,-3.97147 -28.304681,-7.88638 -42.257027,-12.23402 -0.9288,-0.85776 -0.437337,-2.56019 -0.628571,-3.72654 0.0927,-4.18201 -0.258581,-8.43912 0.230133,-12.57815 0.621334,-1.04411 2.020859,0.0251 2.930134,0.029 16.548246,4.30355 33.008061,9.26 49.538621,13.69757 10.89355,-2.87272 21.73558,-6.10304 32.62786,-9.04788 6.41357,-1.76477 12.8053,-3.5688 19.23933,-5.20993 z"
       id="path6692"
       inkscape:connector-curvature="0"
       inkscape:export-filename="/home/mh/path5542.png"
       inkscape:export-xdpi="280.70175"
       inkscape:export-ydpi="280.70175" />
    <path
       style="fill:#005544;fill-opacity:1;stroke:none"
       d="m 120.55543,982.25422 c -6.31524,1.1992 -12.42093,3.29639 -18.64421,4.93809 -12.46983,3.54257 -24.92963,7.12036 -37.39485,10.67909 -17.41096,-4.91402 -34.751277,-10.10953 -52.220239,-14.79774 -2.242731,-0.43099 -5.131042,-1.69572 -6.982888,0.32118 -2.637016,2.04854 -1.804644,6.58469 1.226562,7.75781 16.471905,5.14803 33.119965,9.75435 49.736845,14.42395 2.77694,0.6433 5.49975,1.7544 8.33347,2.0604 12.69403,-3.1782 25.24581,-6.9348 37.84054,-10.49747 6.84403,-2.05161 13.79036,-3.84424 20.52665,-6.19781 3.31706,-1.71548 2.8605,-7.29018 -0.70313,-8.39844 -0.54391,-0.19983 -1.13586,-0.32436 -1.71875,-0.28906 z"
       id="path6694"
       inkscape:connector-curvature="0"
       inkscape:export-filename="/home/mh/path5542.png"
       inkscape:export-xdpi="280.70175"
       inkscape:export-ydpi="280.70175" />
    <path
       style="fill:#005544;fill-opacity:1;stroke:none"
       d="m 7.649096,997.83341 c -2.191638,0.76484 -4.153047,2.65349 -4.041046,5.12479 -0.214612,8.3838 -0.233068,16.7998 -0.108105,25.17 0.757821,1.8234 2.254748,3.4206 4.293092,3.7152 17.572202,5.3082 35.250933,10.3485 52.942223,15.2152 2.06184,0.57 4.23123,1.201 6.3133,0.3345 16.99957,-4.7025 33.99858,-9.5332 50.92085,-14.5363 2.56027,-0.9565 6.04257,-1.2038 7.19531,-4.1328 0.70405,-3.6383 0.23479,-7.4185 0.39063,-11.1094 -0.0877,-5.3276 0.17684,-10.7013 -0.13281,-15.9999 -0.92623,-2.23467 -3.32495,-4.41029 -5.89082,-3.43878 -18.40924,4.86318 -36.69267,10.22198 -55.03887,15.32928 -18.7296,-5.1713 -37.364444,-10.6824 -56.125004,-15.7421 -0.239583,0.0234 -0.479166,0.0469 -0.71875,0.0703 z m 4.78125,10.10929 c 10.789562,2.4642 21.369094,5.827 32.061134,8.7312 6.67685,1.8192 13.3275,3.8069 20.06387,5.347 9.57125,-2.2835 19.01454,-5.2067 28.51642,-7.8116 7.74759,-2.1018 15.43523,-4.5022 23.26483,-6.1572 0.77889,0.1773 0.32218,1.8675 0.52349,2.6718 0.0515,4.5014 0.24109,9.0994 -0.21099,13.547 -0.95198,0.6225 -2.45667,0.6493 -3.55242,1.1238 -15.80063,4.5665 -31.55701,9.365 -47.49446,13.3762 -2.6818,0.6146 -5.24702,-0.9362 -7.83587,-1.4126 -15.21413,-4.2418 -30.442599,-8.4397 -45.554754,-13.0328 -0.492884,-5.3672 -0.153839,-10.8447 -0.0078,-16.2265 l 0.02344,-0.1953 0.203125,0.039 z"
       id="path6696"
       inkscape:connector-curvature="0"
       inkscape:export-filename="/home/mh/path5542.png"
       inkscape:export-xdpi="280.70175"
       inkscape:export-ydpi="280.70175" />
    <path
       style="fill:#00d4aa;fill-opacity:1;stroke:none"
       d="m 12.570971,1007.263 c -1.860728,0.3106 -1.16379,2.704 -1.359375,4.0079 0.02262,4.3125 -0.178064,8.6834 0.242188,12.9609 0.872562,1.4614 2.948127,1.4084 4.371885,2.0575 15.52484,4.6135 31.160011,8.997 46.776551,13.2941 3.84296,0.3749 7.52735,-1.2806 11.23267,-2.0836 14.30852,-3.9778 28.65316,-7.9071 42.8064,-12.4008 1.52903,-0.829 0.84284,-2.9717 1.07031,-4.3906 -0.0159,-4.1355 0.1283,-8.2937 -0.23438,-12.4141 -0.64139,-1.6861 -2.75987,-0.5999 -4.01562,-0.4766 -16.39423,4.1057 -32.53901,9.172 -48.91407,13.3125 -17.15045,-4.1884 -33.965286,-9.6801 -51.121254,-13.8009 -0.282568,-0.052 -0.567123,-0.098 -0.855305,-0.066 z"
       id="path6698"
       inkscape:connector-curvature="0"
       inkscape:export-xdpi="280.70175"
       inkscape:export-ydpi="280.70175"
       inkscape:export-filename="/home/mh/path5542.png" />
    <flowRoot
       xml:space="preserve"
       id="flowRoot6813"
       style="fill:black;stroke:none;stroke-opacity:1;stroke-width:1px;stroke-linejoin:miter;stroke-linecap:butt;fill-opacity:1;font-family:Sans;font-style:normal;font-weight:normal;font-size:40px;line-height:125%;letter-spacing:0px;word-spacing:0px"><flowRegion
         id="flowRegion6815"><rect
           id="rect6817"
           width="378.21429"
           height="119.28571"
           x="125.71429"
           y="3.3571427" /></flowRegion><flowPara
         id="flowPara6819"></flowPara></flowRoot>    <flowRoot
       xml:space="preserve"
       id="flowRoot6821"
       style="font-size:84px;font-style:normal;font-weight:normal;line-height:129.99999523%;letter-spacing:0px;word-spacing:0px;fill:#000000;fill-opacity:1;stroke:none;font-family:Sans"
       transform="translate(0,924.36218)"><flowRegion
         id="flowRegion6823"><rect
           id="rect6825"
           width="373.92853"
           height="108.57143"
           x="133.21428"
           y="13"
           style="font-size:84px;line-height:129.99999523%" /></flowRegion><flowPara
         id="flowPara6827"
         style="font-style:normal;font-variant:normal;font-weight:600;font-stretch:normal;line-height:129.99999523%;baseline-shift:baseline;font-family:FreeSans;-inkscape-font-specification:FreeSans Semi-Bold">JGLOO<flowSpan
   style="font-size:65.00091553%;baseline-shift:super"
   id="flowSpan6833">m</flowSpan></flowPara></flowRoot>  </g>
</svg>
